<?xml version="1.0" encoding="UTF-8"?>
<svg id="_레이어_1" data-name="레이어 1" xmlns="http://www.w3.org/2000/svg" viewBox="0 0 24 24">
  <defs>
    <style>
      .cls-1 {
        fill: #000;
      }

      .cls-1, .cls-2, .cls-3 {
        stroke-width: 0px;
      }

      .cls-2 {
        fill: #ff71e4;
      }

      .cls-4 {
        opacity: 0;
      }

      .cls-3 {
        fill: #fff;
      }
    </style>
  </defs>
  <g class="cls-4">
    <rect class="cls-2" width="24" height="24"/>
  </g>
  <g class="cls-4">
    <rect class="cls-3" x="2" y="2" width="20" height="20"/>
  </g>
  <path class="cls-1" d="M21.71,20.29l-5.4-5.4c1.06-1.35,1.69-3.04,1.69-4.89,0-4.41-3.59-8-8-8S2,5.59,2,10s3.59,8,8,8c1.85,0,3.54-.63,4.9-1.69l5.4,5.4c.19.19.44.29.7.29s.51-.1.71-.29c.39-.39.39-1.03,0-1.42ZM4,10c0-3.31,2.69-6,6-6s6,2.69,6,6-2.69,6-6,6-6-2.69-6-6Z"/>
</svg>